<?xml version="1.0" encoding="utf-8"?>
<!-- Generator: Adobe Illustrator 22.0.1, SVG Export Plug-In . SVG Version: 6.00 Build 0)  -->
<svg version="1.1" id="Layer_1" xmlns="http://www.w3.org/2000/svg" xmlns:xlink="http://www.w3.org/1999/xlink" x="0px" y="0px"
	 viewBox="0 0 47.8 62.2" style="enable-background:new 0 0 47.8 62.2;" xml:space="preserve">
<style type="text/css">
	.st0{fill:#74A7FF;stroke:#527AFF;stroke-miterlimit:10;}
	.st1{fill:#3D449A;}
</style>
<path class="st0" d="M42.1,61.2L5.6,61.2c-2.2,0-4-1.8-4-4L1.7,5c0-2.2,1.8-4,4-4l36.5,0.1c2.2,0,4,1.8,4,4l-0.1,52.2
	C46.1,59.5,44.4,61.2,42.1,61.2z"/>
<path class="st1" d="M14.8,8.7l-7.5,0C7.2,8.6,7.1,8.5,7,8.4l0-1.1C7,7,7.1,7,7.2,6.9l7.5,0c0.2,0,0.3,0.2,0.3,0.3l0,1.1
	C15.2,8.6,15,8.7,14.8,8.7z"/>
<path class="st1" d="M35.3,12.4L7.4,12.4c-0.2,0-0.3-0.2-0.3-0.3l0-1.1c0-0.2,0.2-0.3,0.3-0.3l27.9,0.1c0.2,0,0.3,0.2,0.3,0.3l0,1.1
	C35.6,12.3,35.5,12.5,35.3,12.4z"/>
<path class="st1" d="M41.4,15.1L10.6,15c-0.2,0-0.3-0.2-0.3-0.3l0-1.1c0-0.2,0.2-0.3,0.3-0.3l30.7,0.1c0.2,0,0.3,0.2,0.3,0.3l0,1.1
	C41.6,15,41.5,15,41.4,15.1z"/>
<path class="st1" d="M38.2,19.3L7.4,19.2c-0.2,0-0.3-0.2-0.3-0.3l0-1.1c0-0.2,0.2-0.3,0.3-0.3L38,17.5c0.2,0,0.3,0.2,0.3,0.3l0,1.1
	C38.4,19.2,38.3,19.2,38.2,19.3z"/>
<path class="st1" d="M26.7,22l-16.1,0c-0.2,0-0.3-0.2-0.3-0.3l0-1.1c0-0.2,0.2-0.3,0.3-0.3l16.1,0c0.2,0,0.3,0.2,0.3,0.3l0,1.1
	C27,21.9,26.9,22,26.7,22z"/>
<path class="st1" d="M38.1,26.3L7.4,26.2c-0.2,0-0.3-0.2-0.3-0.3l0-1.1c0-0.2,0.2-0.3,0.3-0.3L38,24.5c0.2,0,0.3,0.2,0.3,0.3l0,1.1
	C38.5,26.1,38.3,26.2,38.1,26.3z"/>
<path class="st1" d="M38.1,30.5L7.4,30.4c-0.2,0-0.3-0.2-0.3-0.3L7,29c0-0.2,0.2-0.3,0.3-0.3L38,28.7c0.2,0,0.3,0.2,0.3,0.3l0,1.1
	C38.4,30.3,38.3,30.5,38.1,30.5z"/>
<path class="st1" d="M14,33.2l-3.4,0c-0.2,0-0.3-0.2-0.3-0.3l0-1.1c0-0.2,0.2-0.3,0.3-0.3l3.4,0c0.2,0,0.3,0.2,0.3,0.3l0,1.1
	C14.3,33.1,14.2,33.3,14,33.2z"/>
<g>
</g>
<g>
</g>
<g>
</g>
<g>
</g>
<g>
</g>
</svg>
