<?xml version="1.0" encoding="utf-8"?>
<!-- Generator: Adobe Illustrator 22.0.1, SVG Export Plug-In . SVG Version: 6.00 Build 0)  -->
<svg version="1.1" id="Layer_1" xmlns="http://www.w3.org/2000/svg" xmlns:xlink="http://www.w3.org/1999/xlink" x="0px" y="0px"
	 viewBox="0 0 47.8 63" style="enable-background:new 0 0 47.8 63;" xml:space="preserve">
<style type="text/css">
	.st0{fill:#003E9F;stroke:#527AFF;stroke-miterlimit:10;}
	.st1{fill:#30FD93;}
</style>
<path class="st0" d="M42,61.8l-36.5,0c-2.2,0-4-1.8-4-4l0-52.2c0-2.2,1.8-4,4-4L42,1.7c2.2,0,4,1.8,4,4l0,52.2
	C46,60,44.1,61.9,42,61.8z"/>
<path class="st1" d="M39.4,10.8l-32.7,0c-0.1,0-0.3-0.1-0.3-0.3l0-2.2C6.3,8.1,6.5,8,6.6,8l32.7,0c0.1,0,0.3,0.1,0.3,0.3l0,2.2
	C39.7,10.7,39.5,10.8,39.4,10.8z"/>
<path class="st1" d="M23.8,18.1l-17.2,0c-0.1,0-0.3-0.1-0.3-0.3l0-0.4c0-0.1,0.1-0.3,0.3-0.3l17.2,0c0.1,0,0.3,0.1,0.3,0.3l0,0.4
	C24.2,18.1,24,18.2,23.8,18.1z"/>
<path class="st1" d="M31.4,15L6.6,15c-0.1,0-0.3-0.1-0.3-0.3l0-2.2c0-0.1,0.1-0.3,0.3-0.3l24.8,0.1c0.1,0,0.3,0.1,0.3,0.3l0,2.2
	C31.7,14.9,31.6,15,31.4,15z"/>
<path class="st1" d="M15.1,25.4l-8.5,0c-0.1,0-0.3-0.1-0.3-0.3l0-1.1c0-0.1,0.1-0.3,0.3-0.3l8.5,0c0.1,0,0.3,0.1,0.3,0.3l0,1.1
	C15.4,25.2,15.3,25.3,15.1,25.4z"/>
<path class="st1" d="M22.7,28.2l-16.1,0c-0.1,0-0.3-0.1-0.3-0.3l0-1.1c0-0.1,0.1-0.3,0.3-0.3l16.1,0c0.1,0,0.3,0.1,0.3,0.3l0,1.1
	C23,28.1,22.9,28.2,22.7,28.2z"/>
<path class="st1" d="M22.6,31.2l-16.1,0c-0.1,0-0.3-0.1-0.3-0.3l0-1.1c0-0.1,0.1-0.3,0.3-0.3l16.1,0c0.1,0,0.3,0.1,0.3,0.3l0,1.1
	C23,31,22.9,31.2,22.6,31.2z"/>
<path class="st1" d="M22.7,34.4l-16.1,0c-0.1,0-0.3-0.1-0.3-0.3l0-1.1c0-0.1,0.1-0.3,0.3-0.3l16.1,0c0.1,0,0.3,0.1,0.3,0.3l0,1.1
	C23,34.2,22.8,34.4,22.7,34.4z"/>
<path class="st1" d="M20,37.3l-13.4,0c-0.1,0-0.3-0.1-0.3-0.3l0-1.1c0-0.1,0.1-0.3,0.3-0.3l13.4,0c0.1,0,0.3,0.1,0.3,0.3l0,1.1
	C20.3,37.2,20.2,37.4,20,37.3z"/>
<path class="st1" d="M18.4,42.5l-11.9,0c-0.1,0-0.3-0.1-0.3-0.3l0-1.1c0-0.1,0.1-0.3,0.3-0.3l11.9,0c0.1,0,0.3,0.1,0.3,0.3l0,1.1
	C18.8,42.3,18.7,42.5,18.4,42.5z"/>
<path class="st1" d="M22.6,45.2l-16.1,0c-0.1,0-0.3-0.1-0.3-0.3l0-1.1c0-0.1,0.1-0.3,0.3-0.3l16.1,0c0.1,0,0.3,0.1,0.3,0.3l0,1.1
	C23,45.2,22.8,45.3,22.6,45.2z"/>
<path class="st1" d="M22.7,48.3l-16.1,0c-0.1,0-0.3-0.1-0.3-0.3l0-1.1c0-0.1,0.1-0.3,0.3-0.3l16.1,0c0.1,0,0.3,0.1,0.3,0.3l0,1.1
	C23,48.2,22.8,48.3,22.7,48.3z"/>
<path class="st1" d="M22.7,51.5l-16.1,0c-0.1,0-0.3-0.1-0.3-0.3l0-1.1c0-0.1,0.1-0.3,0.3-0.3l16.1,0c0.1,0,0.3,0.1,0.3,0.3l0,1.1
	C23,51.3,22.8,51.5,22.7,51.5z"/>
<path class="st1" d="M22.7,54.6l-16.1,0c-0.1,0-0.3-0.1-0.3-0.3l0-1.1c0-0.1,0.1-0.3,0.3-0.3l16.1,0c0.1,0,0.3,0.1,0.3,0.3l0,1.1
	C23,54.5,22.8,54.6,22.7,54.6z"/>
<path class="st1" d="M22.7,57.8l-16.1,0c-0.1,0-0.3-0.1-0.3-0.3l0-1.1c0-0.1,0.1-0.3,0.3-0.3l16.1,0c0.1,0,0.3,0.1,0.3,0.3l0,1.1
	C23,57.6,22.8,57.7,22.7,57.8z"/>
<path class="st1" d="M41.2,25l-16.1,0c-0.1,0-0.3-0.1-0.3-0.3l0-1.1c0-0.1,0.1-0.3,0.3-0.3l16.1,0c0.1,0,0.3,0.1,0.3,0.3l0,1.1
	C41.6,24.8,41.5,25,41.2,25z"/>
<path class="st1" d="M41.2,27.9l-16.1,0c-0.1,0-0.3-0.1-0.3-0.3l0-1.1c0-0.1,0.1-0.3,0.3-0.3l16.1,0c0.1,0,0.3,0.1,0.3,0.3l0,1.1
	C41.6,27.9,41.4,28,41.2,27.9z"/>
<path class="st1" d="M41.3,31.2l-16.1,0c-0.1,0-0.3-0.1-0.3-0.3l0-1.1c0-0.1,0.1-0.3,0.3-0.3l16.1,0c0.1,0,0.3,0.1,0.3,0.3l0,1.1
	C41.6,31,41.4,31.1,41.3,31.2z"/>
<path class="st1" d="M41.3,34.3l-16.1,0c-0.1,0-0.3-0.1-0.3-0.3l0-1.1c0-0.1,0.1-0.3,0.3-0.3l16.1,0c0.1,0,0.3,0.1,0.3,0.3l0,1.1
	C41.6,34.1,41.4,34.3,41.3,34.3z"/>
<path class="st1" d="M41.3,37.4l-16.1,0c-0.1,0-0.3-0.1-0.3-0.3l0-1.1c0-0.1,0.1-0.3,0.3-0.3l16.1,0c0.1,0,0.3,0.1,0.3,0.3l0,1.1
	C41.6,37.3,41.4,37.4,41.3,37.4z"/>
<path class="st1" d="M41.2,40.5l-16.1,0c-0.1,0-0.3-0.1-0.3-0.3l0-1.1c0-0.1,0.1-0.3,0.3-0.3l16.1,0c0.1,0,0.3,0.1,0.3,0.3l0,1.1
	C41.6,40.4,41.4,40.5,41.2,40.5z"/>
<path class="st1" d="M41.3,43.6l-16.1,0c-0.1,0-0.3-0.1-0.3-0.3l0-1.1c0-0.1,0.1-0.3,0.3-0.3l16.1,0c0.1,0,0.3,0.1,0.3,0.3l0,1.1
	C41.6,43.4,41.4,43.5,41.3,43.6z"/>
<path class="st1" d="M41.3,46.7l-16.1,0c-0.1,0-0.3-0.1-0.3-0.3l0-1.1c0-0.1,0.1-0.3,0.3-0.3l16.1,0c0.1,0,0.3,0.1,0.3,0.3l0,1.1
	C41.5,46.6,41.5,46.7,41.3,46.7z"/>
<path class="st1" d="M41.3,49.8l-16.1,0c-0.1,0-0.3-0.1-0.3-0.3l0-1.1c0-0.1,0.1-0.3,0.3-0.3l16.1,0c0.1,0,0.3,0.1,0.3,0.3l0,1.1
	C41.5,49.7,41.4,49.8,41.3,49.8z"/>
<path class="st1" d="M31.9,53l-6.7,0c-0.1,0-0.3-0.1-0.3-0.3l0-1.1c0-0.1,0.1-0.3,0.3-0.3l6.7,0c0.1,0,0.3,0.1,0.3,0.3l0,1.1
	C32.2,52.8,32.1,53,31.9,53z"/>
<g>
</g>
<g>
</g>
<g>
</g>
<g>
</g>
<g>
</g>
</svg>
