<?xml version="1.0" encoding="utf-8"?>
<!-- Generator: Adobe Illustrator 22.0.1, SVG Export Plug-In . SVG Version: 6.00 Build 0)  -->
<svg version="1.1" id="Layer_1" xmlns="http://www.w3.org/2000/svg" xmlns:xlink="http://www.w3.org/1999/xlink" x="0px" y="0px"
	 viewBox="0 0 45.6 61.1" style="enable-background:new 0 0 45.6 61.1;" xml:space="preserve">
<style type="text/css">
	.st0{fill:#74A7FF;stroke:#527AFF;stroke-miterlimit:10;}
	.st1{fill:#3D449A;}
</style>
<path class="st0" d="M41,60.6H4.5c-2.2,0-4-1.8-4-4L0.6,4.4c0-2.2,1.8-4,4-4l36.5,0.1c2.2,0,4,1.8,4,4L45,56.7
	C45,58.9,43.3,60.6,41,60.6z"/>
<path class="st1" d="M13.7,8.1H6.2C6.1,8,6,7.9,5.9,7.8V6.7c0-0.3,0.1-0.3,0.2-0.4h7.5c0.2,0,0.3,0.2,0.3,0.3v1.1
	C14.1,8,13.9,8.1,13.7,8.1z"/>
<path class="st1" d="M34.2,11.8H6.3c-0.2,0-0.3-0.2-0.3-0.3v-1.1c0-0.2,0.2-0.3,0.3-0.3l27.9,0.1c0.2,0,0.3,0.2,0.3,0.3v1.1
	C34.5,11.7,34.4,11.9,34.2,11.8z"/>
<path class="st1" d="M40.3,14.5L9.5,14.4c-0.2,0-0.3-0.2-0.3-0.3V13c0-0.2,0.2-0.3,0.3-0.3l30.7,0.1c0.2,0,0.3,0.2,0.3,0.3v1.1
	C40.5,14.4,40.4,14.4,40.3,14.5z"/>
<path class="st1" d="M37.1,18.7L6.3,18.6c-0.2,0-0.3-0.2-0.3-0.3v-1.1c0-0.2,0.2-0.3,0.3-0.3l30.6,0c0.2,0,0.3,0.2,0.3,0.3v1.1
	C37.3,18.6,37.2,18.6,37.1,18.7z"/>
<path class="st1" d="M25.6,21.4H9.5c-0.2,0-0.3-0.2-0.3-0.3V20c0-0.2,0.2-0.3,0.3-0.3h16.1c0.2,0,0.3,0.2,0.3,0.3v1.1
	C25.9,21.3,25.8,21.4,25.6,21.4z"/>
<path class="st1" d="M37,25.7L6.3,25.6c-0.2,0-0.3-0.2-0.3-0.3v-1.1c0-0.2,0.2-0.3,0.3-0.3l30.6,0c0.2,0,0.3,0.2,0.3,0.3v1.1
	C37.4,25.5,37.2,25.6,37,25.7z"/>
<path class="st1" d="M37,29.9L6.3,29.8c-0.2,0-0.3-0.2-0.3-0.3l-0.1-1.1c0-0.2,0.2-0.3,0.3-0.3h30.7c0.2,0,0.3,0.2,0.3,0.3v1.1
	C37.3,29.7,37.2,29.9,37,29.9z"/>
<path class="st1" d="M12.9,32.6H9.5c-0.2,0-0.3-0.2-0.3-0.3v-1.1c0-0.2,0.2-0.3,0.3-0.3h3.4c0.2,0,0.3,0.2,0.3,0.3v1.1
	C13.2,32.5,13.1,32.7,12.9,32.6z"/>
</svg>
