<?xml version="1.0" encoding="utf-8"?>
<!-- Generator: Adobe Illustrator 22.0.1, SVG Export Plug-In . SVG Version: 6.00 Build 0)  -->
<svg version="1.1" id="Layer_1" xmlns="http://www.w3.org/2000/svg" xmlns:xlink="http://www.w3.org/1999/xlink" x="0px" y="0px"
	 viewBox="0 0 47.4 62.3" style="enable-background:new 0 0 47.4 62.3;" xml:space="preserve">
<style type="text/css">
	.st0{fill:#C9FFD4;stroke:#527AFF;stroke-miterlimit:10;}
	.st1{fill:#30FD93;}
	.st2{fill:none;stroke:#30FD93;stroke-width:0.2;stroke-linecap:round;stroke-miterlimit:10;}
	.st3{fill:#2E3192;stroke:#2E3192;stroke-width:8.597826e-02;stroke-miterlimit:10;}
</style>
<path class="st0" d="M42,61.2l-36.5,0c-2.2,0-4-1.9-4-4L1.6,5c0-2.2,1.9-4,4-4l36.5,0c2.2,0,4,1.9,4,4l0,52.2
	C46,59.5,44.2,61.3,42,61.2z"/>
<path class="st1" d="M40.8,8.5l-30.7,0c-0.2,0-0.3-0.1-0.3-0.3l0-1.1c0-0.2,0.1-0.3,0.3-0.3L41,6.9c0.2,0,0.3,0.1,0.3,0.3l0,1.1
	C41.1,8.3,41,8.5,40.8,8.5z"/>
<path class="st1" d="M40.9,11.7l-34.6,0C6,11.7,6,11.6,6,11.4l-0.1-1.2C5.9,10,6,9.9,6.2,9.9l34.6,0c0.2,0,0.3,0.1,0.3,0.3l0,1.1
	C41.2,11.5,41,11.6,40.9,11.7z"/>
<path class="st1" d="M40.8,14.9l-34.6,0c-0.2,0-0.3-0.1-0.3-0.3l0-1.1c0-0.2,0.1-0.3,0.3-0.3l34.5,0c0.2,0,0.3,0.1,0.3,0.3l0,1.1
	C41.1,14.8,41,14.9,40.8,14.9z"/>
<path class="st1" d="M40.8,18.1l-34.6,0C6,18.1,6,18,6,17.8l0-1.1c0-0.2,0.1-0.3,0.3-0.3l34.6,0c0.2,0,0.3,0.1,0.3,0.3l0,1.1
	C41.2,18,41,18.1,40.8,18.1z"/>
<path class="st1" d="M40.8,21.3l-34.6,0c-0.2,0-0.3-0.1-0.3-0.3l0-1.1c0-0.2,0.1-0.3,0.3-0.3l34.6,0c0.2,0,0.3,0.1,0.3,0.3l0,1.1
	C41.1,21.1,41,21.3,40.8,21.3z"/>
<path class="st1" d="M40.8,24.6l-34.6,0c-0.2,0-0.3-0.1-0.3-0.3l0-1.1c0-0.2,0.1-0.3,0.3-0.3l34.6,0c0.2,0,0.3,0.1,0.3,0.3l0,1.1
	C41.2,24.4,41,24.5,40.8,24.6z"/>
<path class="st1" d="M21.5,27.8l-15.3,0c-0.2,0-0.3-0.1-0.3-0.3l0-1.1c0-0.2,0.1-0.3,0.3-0.3l15.3,0c0.2,0,0.3,0.1,0.3,0.3l0,1.1
	C21.8,27.6,21.6,27.8,21.5,27.8z"/>
<path class="st1" d="M21.3,39.6l-11.2,0c-0.2,0-0.3-0.1-0.3-0.3l0-1.1c0-0.2,0.1-0.3,0.3-0.3l11.2,0c0.2,0,0.3,0.1,0.3,0.3l0,1.1
	C21.5,39.5,21.4,39.6,21.3,39.6z"/>
<path class="st1" d="M21.2,42.8L6.1,42.8c-0.2,0-0.3-0.1-0.3-0.3l0-1.1c0-0.2,0.1-0.3,0.3-0.3l15.1,0.1c0.2,0,0.3,0.1,0.3,0.3l0,1.1
	C21.5,42.7,21.4,42.9,21.2,42.8z"/>
<line class="st2" x1="24.6" y1="27.8" x2="24.6" y2="44.3"/>
<line class="st2" x1="41.1" y1="44.3" x2="24.6" y2="44.3"/>
<circle class="st3" cx="28.4" cy="38.4" r="0.4"/>
<circle class="st3" cx="34.6" cy="33.3" r="0.4"/>
<circle class="st3" cx="34.7" cy="37.6" r="0.4"/>
<circle class="st3" cx="35.6" cy="30.6" r="0.4"/>
<circle class="st3" cx="30.8" cy="35.4" r="0.4"/>
<circle class="st3" cx="27.7" cy="42.4" r="0.4"/>
<path class="st1" d="M21.4,31L6.1,31c-0.2,0-0.3-0.1-0.3-0.3l0-1.1c0-0.2,0.1-0.3,0.3-0.3l15.3,0c0.2,0,0.3,0.1,0.3,0.3l0,1.1
	C21.7,30.8,21.6,31,21.4,31z"/>
<path class="st1" d="M21.5,34.1l-15.3,0c-0.2,0-0.3-0.1-0.3-0.3l0-1.1c0-0.2,0.1-0.3,0.3-0.3l15.3,0c0.2,0,0.3,0.1,0.3,0.3l0,1.1
	C21.7,33.9,21.6,34.1,21.5,34.1z"/>
<path class="st1" d="M21.3,46.1L6.2,46c-0.2,0-0.3-0.1-0.3-0.3l0-1.1c0-0.2,0.1-0.3,0.3-0.3l15.1,0.1c0.2,0,0.3,0.1,0.3,0.3l0,1.1
	C21.5,45.9,21.4,46.1,21.3,46.1z"/>
<path class="st1" d="M40.8,49.3l-34.6,0c-0.2,0-0.3-0.1-0.3-0.3l0-1.1c0-0.2,0.1-0.3,0.3-0.3l34.6,0c0.2,0,0.3,0.1,0.3,0.3l0,1.1
	C41,49.2,40.9,49.2,40.8,49.3z"/>
<path class="st1" d="M40.8,52.4l-34.6,0c-0.2,0-0.3-0.1-0.3-0.3l0-1.1c0-0.2,0.1-0.3,0.3-0.3l34.6,0c0.2,0,0.3,0.1,0.3,0.3l0,1.1
	C41.1,52.3,41,52.5,40.8,52.4z"/>
<path class="st1" d="M40.8,55.8l-34.6,0c-0.2,0-0.3-0.1-0.3-0.3l0-1.1c0-0.2,0.1-0.3,0.3-0.3l34.6,0c0.2,0,0.3,0.1,0.3,0.3l0,1.1
	C41,55.6,40.9,55.7,40.8,55.8z"/>
<g>
</g>
<g>
</g>
<g>
</g>
<g>
</g>
<g>
</g>
</svg>
