<?xml version="1.0" encoding="utf-8"?>
<!-- Generator: Adobe Illustrator 22.0.1, SVG Export Plug-In . SVG Version: 6.00 Build 0)  -->
<svg version="1.1" id="red_doc" xmlns="http://www.w3.org/2000/svg" xmlns:xlink="http://www.w3.org/1999/xlink" x="0px" y="0px"
	 viewBox="0 0 47.2 62.2" style="enable-background:new 0 0 47.2 62.2;" xml:space="preserve">
<style type="text/css">
	.st0{fill:#D591B8;stroke:#527AFF;stroke-miterlimit:10;}
	.st1{fill:#88E2DF;}
</style>
<path class="st0" d="M42,61L5.5,61.2c-2.2,0-4-1.8-4-4L1.2,5.1c0-2.2,1.8-4,4-4l36.5-0.2c2.2,0,4,1.8,4,4L46,57
	C46,59.2,44.2,61,42,61z"/>
<path class="st1" d="M14.4,8.8L6.9,8.8C6.7,8.9,6.6,8.7,6.6,8.5l0-1.1C6.6,7.2,6.7,7,6.9,7L14.4,7c0.2-0.1,0.3,0.1,0.3,0.3l0,1.1
	C14.6,8.6,14.5,8.7,14.4,8.8z"/>
<path class="st1" d="M37.6,12.2L11,12.4c-0.2,0.1-0.3-0.1-0.3-0.3l0-1.1c-0.1-0.2,0.1-0.3,0.3-0.3l26.6-0.1c0.2-0.1,0.3,0.1,0.3,0.3
	l0,1.1C37.9,12.1,37.7,12.2,37.6,12.2z"/>
<path class="st1" d="M37.7,15.1L6.9,15.3c-0.2,0.1-0.3-0.1-0.3-0.3l0-1.1c-0.1-0.2,0.1-0.3,0.3-0.3l30.7-0.2
	c0.2-0.1,0.3,0.1,0.3,0.3l0,1.1C37.9,15,37.9,15.1,37.7,15.1z"/>
<path class="st1" d="M14.2,19.5l-7.3,0c-0.2,0.1-0.3-0.1-0.3-0.3l0-1.1c-0.1-0.2,0.1-0.3,0.3-0.3l7.3,0c0.2-0.1,0.3,0.1,0.3,0.3
	l0,1.1C14.5,19.3,14.4,19.4,14.2,19.5z"/>
<path class="st1" d="M37.6,22.5L11,22.6c-0.2,0.1-0.3-0.1-0.3-0.3l0-1.1c-0.1-0.2,0.1-0.3,0.3-0.3l26.6-0.1c0.2-0.1,0.3,0.1,0.3,0.3
	l0,1.1C37.9,22.4,37.8,22.6,37.6,22.5z"/>
<path class="st1" d="M14.3,27.3l-7.3,0c-0.2,0.1-0.3-0.1-0.3-0.3l0-1.1c-0.1-0.2,0.1-0.3,0.3-0.3l7.3,0c0.2-0.1,0.3,0.1,0.3,0.3
	l0,1.1C14.5,27.2,14.4,27.3,14.3,27.3z"/>
<path class="st1" d="M37.8,30.2L11,30.4c-0.2,0.1-0.3-0.1-0.3-0.3l0-1.1c-0.1-0.2,0.1-0.3,0.3-0.3l26.7-0.1c0.2-0.1,0.3,0.1,0.3,0.3
	l0,1.1C38,30.2,38,30.3,37.8,30.2z"/>
<path class="st1" d="M10.5,33.2l-3.4,0c-0.2,0.1-0.3-0.1-0.3-0.3l0-1.1c-0.1-0.2,0.1-0.3,0.3-0.3l3.4,0c0.2-0.1,0.3,0.1,0.3,0.3
	l0,1.1C10.7,33.1,10.6,33.2,10.5,33.2z"/>
<g>
</g>
<g>
</g>
<g>
</g>
<g>
</g>
<g>
</g>
</svg>
