<?xml version="1.0" encoding="utf-8"?>
<!-- Generator: Adobe Illustrator 22.0.1, SVG Export Plug-In . SVG Version: 6.00 Build 0)  -->
<svg version="1.1" id="Layer_1" xmlns="http://www.w3.org/2000/svg" xmlns:xlink="http://www.w3.org/1999/xlink" x="0px" y="0px"
	 viewBox="0 0 325.5 42.1" style="enable-background:new 0 0 325.5 42.1;" xml:space="preserve">
<style type="text/css">
	.st0{fill:#7CBFFF;}
	.st1{fill:#32FF95;}
	.st2{fill:none;}
	.st3{fill:#FFA4B6;}
</style>
<g>
	<path class="st0" d="M26.9,31.5v-7.1h-7.6V19h13.3v15.3c0,0-4.3,4.2-12.4,4.2c-9.8,0-17.7-7.4-17.7-17.4c0-9.9,7.6-17.3,17.4-17.3
		c8.3,0,12.5,5,12.5,5l-3.9,3.8c0,0-2.8-3.5-8.5-3.5c-6.8,0-11.6,5.5-11.6,12s5,12,11.8,12C25,33.1,26.9,31.5,26.9,31.5z"/>
	<path class="st0" d="M53.6,15.3l-2,5.2c0,0-1.1-0.5-2.7-0.5c-3.5,0-5.1,3.1-5.1,3.1V38H38V15.2h5.5v3.3c0,0,2-3.9,6.2-3.9
		C51.7,14.6,53.6,15.3,53.6,15.3z"/>
	<path class="st0" d="M75.9,23.1v14.8h-5.3V35c0,0-2.4,3.5-7.5,3.5c-4.3,0-8.2-2.8-8.2-7.6c0-4.4,4-7.5,8.9-7.5
		c4.2,0,6.3,1.6,6.3,1.6v-1.3c0-3-2.9-3.9-4.9-3.9c-3.3,0-6.8,1.7-6.8,1.7l-1.9-4.8c0,0,4.2-2.1,9-2.1
		C72.1,14.6,75.9,17.9,75.9,23.1z M70.2,31.1v-2.4c0,0-2.1-1.2-5.2-1.2c-1.8,0-4.2,0.8-4.2,3.2s2.4,2.9,4.1,2.9
		C68.4,33.8,70.2,31.1,70.2,31.1z"/>
	<path class="st0" d="M103.4,37.9h-5.3v-3c0,0-2,3.6-6.9,3.6c-5.9,0-11.1-4.9-11.1-12s5.2-12,11.1-12c4.3,0,6.4,3,6.4,3V1.6h5.8
		V37.9z M97.7,23.2c0,0-1.6-3.2-5.4-3.2c-3.9,0-6.2,2.8-6.2,6.6s2.4,6.6,6.2,6.6s5.4-3.2,5.4-3.2V23.2z"/>
	<path class="st0" d="M131.2,26.5c0,0.4,0,1.3,0,2.2h-17c0.4,2,2.8,4.6,6.4,4.6c4,0,6.2-2.3,6.2-2.3l2.9,4.3c0,0-3.6,3.3-9.1,3.3
		c-6.9,0-12.2-5.3-12.2-12s4.8-12,11.4-12C126,14.6,131.2,19.5,131.2,26.5z M125.5,24.4c-0.1-2-1.9-4.6-5.7-4.6
		c-3.7,0-5.4,2.6-5.6,4.6H125.5z"/>
	<path class="st1" d="M136.1,4.3H147c5.5,0,10.7,2.5,10.7,9.6c0,4.1-3,6-3.5,6.2c0.5,0.1,5.2,1.8,5.2,7.9c0,5.9-4.9,9.9-11.2,9.9
		h-12.1L136.1,4.3L136.1,4.3z M146.8,18.1c3.2,0,5-1.2,5-4.1s-2.2-4.1-5-4.1h-4.9v8.3L146.8,18.1L146.8,18.1z M153.6,28
		c0-3.2-2.4-4.5-5.6-4.5h-6.1v8.9h6.1C151.2,32.5,153.6,31.2,153.6,28z"/>
	<path class="st1" d="M186.5,26.6c0,6.7-5.4,12-12.1,12s-12.1-5.3-12.1-12s5.4-12,12.1-12S186.5,19.8,186.5,26.6z M180.7,26.6
		c0-3.6-2.4-6.6-6.3-6.6s-6.3,3-6.3,6.6s2.4,6.6,6.3,6.6S180.7,30.1,180.7,26.6z"/>
	<path class="st1" d="M213.5,26.6c0,6.7-5.4,12-12.1,12s-12.1-5.3-12.1-12s5.4-12,12.1-12S213.5,19.8,213.5,26.6z M207.6,26.6
		c0-3.6-2.4-6.6-6.3-6.6s-6.3,3-6.3,6.6s2.4,6.6,6.3,6.6S207.6,30.1,207.6,26.6z"/>
	<path class="st1" d="M224.2,24.2l8.2-9h7.4l-10,10.8l10.7,12h-7.6l-8.7-9.9V38h-5.8V1.6h5.8L224.2,24.2L224.2,24.2z"/>
</g>
<g>
	<rect x="189.1" y="-4" class="st2" width="13.7" height="0.7"/>
</g>
<g>
	<path class="st3" d="M249.8,9.2l1.2,1.2c0,0-1,1.4-3,1.4c-2.2,0-3.9-1.7-3.9-3.8c0-2.1,1.7-3.8,3.9-3.8c1.9,0,2.9,1.3,2.9,1.3
		l-1.3,1.1c0,0-0.6-0.8-1.7-0.8c-1.2,0-2,1-2,2.1s0.8,2.1,2,2.1C249.3,10.1,249.8,9.2,249.8,9.2z"/>
	<path class="st3" d="M259.4,8c0,2.1-1.7,3.8-3.8,3.8s-3.8-1.7-3.8-3.8c0-2.1,1.7-3.8,3.8-3.8S259.4,5.9,259.4,8z M257.6,8
		c0-1.1-0.8-2.1-2-2.1c-1.2,0-2,1-2,2.1s0.8,2.1,2,2.1C256.8,10.1,257.6,9.1,257.6,8z"/>
	<path class="st3" d="M271.6,7v4.6h-1.8V7.5c0-1-0.4-1.5-1.3-1.5c-1,0-1.4,0.9-1.4,0.9v4.8h-1.8V7.5c0-1-0.4-1.5-1.3-1.5
		c-1,0-1.4,0.9-1.4,0.9v4.8h-1.8V4.4h1.7v1c0,0,0.7-1.2,2.1-1.2c1.7,0,2.2,1.3,2.2,1.3s0.6-1.3,2.3-1.3C270.6,4.2,271.6,5.3,271.6,7
		z"/>
	<path class="st3" d="M284.3,7v4.6h-1.8V7.5c0-1-0.4-1.5-1.3-1.5c-1,0-1.4,0.9-1.4,0.9v4.8H278V7.5c0-1-0.4-1.5-1.3-1.5
		c-1,0-1.4,0.9-1.4,0.9v4.8h-1.8V4.4h1.7v1c0,0,0.7-1.2,2.1-1.2c1.7,0,2.2,1.3,2.2,1.3s0.6-1.3,2.3-1.3C283.3,4.2,284.3,5.3,284.3,7
		z"/>
	<path class="st3" d="M286.1,9.1V4.4h1.8v4.2c0,1.1,0.5,1.5,1.4,1.5c0.9,0,1.4-0.9,1.4-0.9V4.4h1.8v7.2h-1.7v-1c0,0-0.7,1.2-2.2,1.2
		C287.4,11.8,286.1,10.8,286.1,9.1z"/>
	<path class="st3" d="M301,7v4.7h-1.8V7.4c0-1-0.6-1.5-1.4-1.5c-0.9,0-1.4,0.9-1.4,0.9v4.8h-1.8V4.4h1.7v1c0,0,0.6-1.2,2.2-1.2
		C299.7,4.2,301,5.2,301,7z"/>
	<path class="st3" d="M304,0.9c0.7,0,1.2,0.5,1.2,1.2s-0.5,1.2-1.2,1.2s-1.2-0.5-1.2-1.2S303.3,0.9,304,0.9z M303.1,4.4h1.8v7.2
		h-1.8V4.4z"/>
	<path class="st3" d="M306.4,4.4h1.4V2.3h1.8v2.1h2.2v1.6h-2.2V9c0,0.9,0.5,1.1,0.9,1.1c0.4,0,0.8-0.3,0.8-0.3l0.7,1.5
		c0,0-0.7,0.5-1.7,0.5c-1.4,0-2.5-1-2.5-2.6V6.1h-1.4V4.4z"/>
	<path class="st3" d="M313.6,13.1c0,0,0.5,0.5,1,0.5c0.6,0,0.9-0.2,1.2-1.1l0.3-0.7l-3.5-7.4h2l2.4,5.3l1.9-5.3h2l-3.5,8.8
		c-0.6,1.6-1.6,2.1-2.7,2.1c-1.1,0-1.9-0.8-1.9-0.8L313.6,13.1z"/>
</g>
<g>
	<rect x="252.8" y="27.5" class="st2" width="40.5" height="0.3"/>
</g>
<g>
</g>
</svg>
