<?xml version="1.0" encoding="utf-8"?>
<!-- Generator: Adobe Illustrator 22.0.1, SVG Export Plug-In . SVG Version: 6.00 Build 0)  -->
<svg version="1.1" id="Layer_1" xmlns="http://www.w3.org/2000/svg" xmlns:xlink="http://www.w3.org/1999/xlink" x="0px" y="0px"
	 viewBox="0 0 60.4 42.1" style="enable-background:new 0 0 60.4 42.1;" xml:space="preserve">
<style type="text/css">
	.st0{fill:#7CBFFF;}
	.st1{fill:#32FF95;}
	.st2{fill:none;}
</style>
<g>
	<path class="st0" d="M26.9,31.5v-7.1h-7.6V19h13.3v15.3c0,0-4.3,4.2-12.4,4.2c-9.8,0-17.7-7.4-17.7-17.4c0-9.9,7.6-17.3,17.4-17.3
		c8.3,0,12.5,5,12.5,5l-3.9,3.8c0,0-2.8-3.5-8.5-3.5c-6.8,0-11.6,5.5-11.6,12s5,12,11.8,12C25,33.1,26.9,31.5,26.9,31.5z"/>
	<path class="st0" d="M97.6,1.6h5.8"/>
	<path class="st1" d="M36.8,4.3h10.9c5.5,0,10.7,2.5,10.7,9.6c0,4.1-3,6-3.5,6.2c0.5,0.1,5.2,1.8,5.2,7.9c0,5.9-4.9,9.9-11.2,9.9
		H36.8L36.8,4.3L36.8,4.3z M47.5,18.1c3.2,0,5-1.2,5-4.1s-2.2-4.1-5-4.1h-4.9v8.3L47.5,18.1L47.5,18.1z M54.3,28
		c0-3.2-2.4-4.5-5.6-4.5h-6.1v8.9h6.1C51.9,32.5,54.3,31.3,54.3,28z"/>
</g>
<g>
	<line class="st2" x1="189.1" y1="-4" x2="202.8" y2="-4"/>
</g>
</svg>
