<?xml version="1.0" encoding="utf-8"?>
<!-- Generator: Adobe Illustrator 22.0.1, SVG Export Plug-In . SVG Version: 6.00 Build 0)  -->
<svg version="1.1" id="Layer_1" xmlns="http://www.w3.org/2000/svg" xmlns:xlink="http://www.w3.org/1999/xlink" x="0px" y="0px"
	 viewBox="0 0 362.1 200.5" style="enable-background:new 0 0 362.1 200.5;" xml:space="preserve">
<style type="text/css">
	.st0{fill:#76BFDF;}
	.st1{fill:#74A7FF;stroke:#527AFF;stroke-miterlimit:10;}
	.st2{fill:#3D449A;}
	.st3{fill:#C9FFD4;stroke:#527AFF;stroke-miterlimit:10;}
	.st4{fill:#30FD93;}
	.st5{fill:#003E9F;stroke:#527AFF;stroke-miterlimit:10;}
	.st6{fill:#D591B8;stroke:#527AFF;stroke-miterlimit:10;}
	.st7{fill:#88E2DF;}
	.st8{fill:none;stroke:#88E2DF;stroke-width:2;stroke-miterlimit:10;}
	.st9{fill:#636EDF;}
	.st10{fill:none;stroke:#88E2DF;stroke-width:0.1;stroke-miterlimit:10;}
	.st11{fill:none;stroke:#88E2DF;stroke-width:0.15;stroke-miterlimit:10;}
	.st12{fill:none;stroke:#88E2DF;stroke-width:0.2;stroke-miterlimit:10;}
	.st13{fill:#009EE9;}
	.st14{fill:#003B74;stroke:#003B74;stroke-width:0.1616;stroke-miterlimit:10;}
	.st15{fill:none;stroke:#30FD93;stroke-width:0.2;stroke-linecap:round;stroke-miterlimit:10;}
	.st16{fill:#2E3192;stroke:#2E3192;stroke-width:8.597826e-02;stroke-miterlimit:10;}
</style>
<path class="st0" d="M296.8,210.9h-1.2c-0.2,0-0.4-0.2-0.4-0.4v-1.1c0-0.2,0.2-0.4,0.4-0.4h1.2c0.2,0,0.4,0.2,0.4,0.4v1.1
	C297.2,210.7,297,210.9,296.8,210.9z"/>
<g id="Layer_1_1_">
	<path class="st1" d="M274.8,221.3l-36.5,0.1c-2.2,0-4-1.8-4-4l-0.2-52.2c0-2.2,1.8-4,4-4l36.5-0.1c2.2,0,4,1.8,4,4l0.2,52.2
		C278.7,219.6,277,221.3,274.8,221.3z"/>
	<path class="st2" d="M247.2,169l-7.5,0c-0.2,0-0.3-0.2-0.3-0.3l-0.1-1.1c0-0.2,0.2-0.3,0.3-0.3l7.5,0c0.2,0,0.3,0.2,0.3,0.3
		l0.1,1.1C247.6,168.8,247.4,169,247.2,169z"/>
	<path class="st2" d="M267.7,172.6l-27.9,0.1c-0.2,0-0.3-0.2-0.3-0.3l-0.1-1.1c0-0.2,0.2-0.3,0.3-0.3l27.9-0.1
		c0.2,0,0.3,0.2,0.3,0.3l0.1,1.1C268.1,172.4,267.9,172.6,267.7,172.6z"/>
	<path class="st2" d="M273.8,175.2l-30.7,0.1c-0.2,0-0.3-0.2-0.3-0.3l-0.1-1.1c0-0.2,0.2-0.3,0.3-0.3l30.7-0.1
		c0.2,0,0.3,0.2,0.3,0.3l0.1,1.1C274,175.1,273.9,175.2,273.8,175.2z"/>
	<path class="st2" d="M270.6,179.5l-30.7,0.1c-0.2,0-0.3-0.2-0.3-0.3l-0.1-1.1c0-0.2,0.2-0.3,0.3-0.3l30.7-0.1
		c0.2,0,0.3,0.2,0.3,0.3l0.1,1.1C270.8,179.3,270.7,179.4,270.6,179.5z"/>
	<path class="st3" d="M70.3,221.2l-36.5-0.1c-2.2,0-3.9-1.8-4-4.1l0.1-52.1c0-2.2,1.8-3.9,4.1-4l36.5,0.1c2.2,0,3.9,1.8,4,4.1
		l-0.1,52.1C74.3,219.4,72.5,221.2,70.3,221.2z"/>
	<path class="st4" d="M48.2,168.6l-13.7,0c-0.2,0.1-0.3-0.1-0.3-0.3l0-1.1c-0.1-0.2,0.1-0.3,0.3-0.3l13.7,0c0.2-0.1,0.3,0.1,0.3,0.3
		l0,1.1C48.5,168.5,48.4,168.7,48.2,168.6z"/>
	<path class="st4" d="M44.8,171.9l-10.2,0c-0.2,0.1-0.3-0.1-0.3-0.3l0-1.1c-0.1-0.2,0.1-0.3,0.3-0.3l10.2,0c0.2-0.1,0.3,0.1,0.3,0.3
		l0,1.1C45.1,171.7,44.9,171.9,44.8,171.9z"/>
	<path class="st4" d="M45.9,175.1L34.5,175c-0.1,0-0.2,0-0.3-0.2l0-1.1c-0.1-0.2,0.1-0.3,0.3-0.3l11.5,0.1c0.2-0.1,0.3,0.1,0.3,0.3
		l0,1.1C46.3,175,46.2,175.1,45.9,175.1z"/>
	<path class="st4" d="M41.8,178.4l-7.2,0c-0.2,0.1-0.3-0.1-0.3-0.3l0-1.1c-0.1-0.2,0.1-0.3,0.3-0.3l7.2,0c0.2-0.1,0.3,0.1,0.3,0.3
		l0,1.1C42.1,178.3,41.9,178.3,41.8,178.4z"/>
	<path class="st4" d="M69.2,168.7l-4.3,0c-0.2,0.1-0.3-0.1-0.3-0.3l0-1.1c-0.1-0.2,0.1-0.3,0.3-0.3l4.3,0c0.2-0.1,0.3,0.1,0.3,0.3
		l0,1.1C69.6,168.6,69.4,168.7,69.2,168.7z"/>
	<path class="st4" d="M59.7,183.7l-15-0.1c-0.2,0.1-0.3-0.1-0.3-0.3l0-1.1c-0.1-0.2,0.1-0.3,0.3-0.3l15,0.1c0.2-0.1,0.3,0.1,0.3,0.3
		l0,1.1C60.1,183.4,59.9,183.6,59.7,183.7z"/>
	<path class="st4" d="M69.2,188.8l-30.8,0c-0.1-0.1-0.3-0.2-0.3-0.3l0-1.1c-0.1-0.2,0.1-0.3,0.3-0.3l30.7,0.1
		c0.2-0.1,0.3,0.1,0.3,0.3l0,1.1C69.5,188.7,69.3,188.8,69.2,188.8z"/>
	<path class="st4" d="M69.2,192l-34.7-0.1c-0.2,0.1-0.3-0.1-0.3-0.3l0-1.1c-0.1-0.2,0.1-0.3,0.3-0.3l34.7,0.1
		c0.2-0.1,0.3,0.1,0.3,0.3l0,1.1C69.5,191.9,69.4,191.9,69.2,192z"/>
	<path class="st4" d="M69.2,195.2l-34.7-0.1c-0.2,0.1-0.3-0.1-0.3-0.3l0-1.1c-0.1-0.2,0.1-0.3,0.3-0.3l34.7,0.1
		c0.2-0.1,0.3,0.1,0.3,0.3l0,1.1C69.4,195.1,69.4,195.2,69.2,195.2z"/>
	<path class="st4" d="M69.1,198.4l-34.7-0.1c-0.2,0.1-0.3-0.1-0.3-0.3l0-1.1c-0.1-0.2,0.1-0.3,0.3-0.3l34.7,0.1
		c0.2-0.1,0.3,0.1,0.3,0.3l0,1.1C69.4,198.3,69.3,198.4,69.1,198.4z"/>
	<path class="st4" d="M69.1,201.6l-34.7-0.1c-0.2,0.1-0.3-0.1-0.3-0.3l0-1.1c-0.1-0.2,0.1-0.3,0.3-0.3l34.7,0.1
		c0.2-0.1,0.3,0.1,0.3,0.3l0,1.1C69.5,201.5,69.3,201.6,69.1,201.6z"/>
	<path class="st4" d="M69.1,204.9l-34.7-0.1c-0.2,0.1-0.3-0.1-0.3-0.3l0-1.1c-0.1-0.2,0.1-0.3,0.3-0.3l34.7,0.1
		c0.2-0.1,0.3,0.1,0.3,0.3l0,1.1C69.5,204.7,69.3,204.8,69.1,204.9z"/>
	<path class="st4" d="M49.7,208l-15.3,0c-0.2,0.1-0.3-0.1-0.3-0.3l0-1.1c-0.1-0.2,0.1-0.3,0.3-0.3l15.3,0c0.2-0.1,0.3,0.1,0.3,0.3
		l0,1.1C50.1,207.8,49.9,208,49.7,208z"/>
	<path class="st4" d="M69.1,213.7l-30.7-0.1c-0.2,0.1-0.3-0.1-0.3-0.3l0-1.1c-0.1-0.2,0.1-0.3,0.3-0.3l30.7,0.1
		c0.2-0.1,0.3,0.1,0.3,0.3l0,1.1C69.4,213.5,69.3,213.7,69.1,213.7z"/>
	<path class="st4" d="M69.1,216.8l-34.7-0.1c-0.2,0.1-0.3-0.1-0.3-0.3l0-1.1c-0.1-0.2,0.1-0.3,0.3-0.3l34.7,0.1
		c0.2-0.1,0.3,0.1,0.3,0.3l0,1.1C69.4,216.6,69.3,216.8,69.1,216.8z"/>
	<path class="st5" d="M223.2,222l-36.5-0.1c-2.2,0-4-1.8-4-4l0.1-52.2c0-2.2,1.8-4,4-4l36.6,0.3c2.2,0,4,1.8,4,4l-0.1,52.2
		C227.2,220.2,225.3,222,223.2,222z"/>
	<path class="st4" d="M220.8,170.9l-32.7-0.1c-0.1,0-0.3-0.1-0.3-0.3l0-2.2c0-0.1,0.1-0.3,0.3-0.3l32.7,0.1c0.1,0,0.3,0.1,0.3,0.3
		l0,2.2C221,170.8,220.9,170.9,220.8,170.9z"/>
	<path class="st4" d="M205.1,178.2l-17.2,0c-0.1,0-0.3-0.1-0.3-0.3l0-0.4c0-0.1,0.1-0.3,0.3-0.3l17.2,0c0.1,0,0.3,0.1,0.3,0.3l0,0.4
		C205.5,178.1,205.3,178.3,205.1,178.2z"/>
	<path class="st2" d="M259.1,182.2l-16.1,0c-0.2,0-0.3-0.2-0.3-0.3l-0.1-1.1c0-0.2,0.2-0.3,0.3-0.3l16.1,0c0.2,0,0.3,0.2,0.3,0.3
		l0.1,1.1C259.5,182.1,259.3,182.2,259.1,182.2z"/>
	<path class="st2" d="M270.6,186.4l-30.7,0.1c-0.2,0-0.3-0.2-0.3-0.3l-0.1-1.1c0-0.2,0.2-0.3,0.3-0.3l30.7-0.1
		c0.2,0,0.3,0.2,0.3,0.3l0.1,1.1C270.9,186.3,270.8,186.4,270.6,186.4z"/>
	<path class="st2" d="M270.6,190.6l-30.7,0.1c-0.2,0-0.3-0.2-0.3-0.3l-0.1-1.1c0-0.2,0.2-0.3,0.3-0.3l30.7-0.1
		c0.2,0,0.3,0.2,0.3,0.3l0.1,1.1C270.9,190.5,270.8,190.7,270.6,190.6z"/>
	<path class="st2" d="M246.5,193.5l-3.4,0c-0.2,0-0.3-0.2-0.3-0.3l-0.1-1.1c0-0.2,0.2-0.3,0.3-0.3l3.4,0c0.2,0,0.3,0.2,0.3,0.3
		l0.1,1.1C246.8,193.4,246.7,193.5,246.5,193.5z"/>
	<path class="st4" d="M212.7,175.2l-24.8-0.1c-0.1,0-0.3-0.1-0.3-0.3l0-2.2c0-0.1,0.1-0.3,0.3-0.3l24.8,0.1c0.1,0,0.3,0.1,0.3,0.3
		l0,2.2C213,175,212.9,175.2,212.7,175.2z"/>
	<path class="st4" d="M196.5,185.5l-8.5,0c-0.1,0-0.3-0.1-0.3-0.3l0-1.1c0-0.1,0.1-0.3,0.3-0.3l8.5,0c0.1,0,0.3,0.1,0.3,0.3l0,1.1
		C196.8,185.3,196.6,185.4,196.5,185.5z"/>
	<path class="st4" d="M204,188.2l-16.1,0c-0.1,0-0.3-0.1-0.3-0.3l0-1.1c0-0.1,0.1-0.3,0.3-0.3l16.1,0c0.1,0,0.3,0.1,0.3,0.3l0,1.1
		C204.3,188.2,204.2,188.2,204,188.2z"/>
	<path class="st4" d="M204,191.2l-16.1,0c-0.1,0-0.3-0.1-0.3-0.3l0-1.1c0-0.1,0.1-0.3,0.3-0.3l16.1,0c0.1,0,0.3,0.1,0.3,0.3l0,1.1
		C204.4,191.1,204.2,191.2,204,191.2z"/>
	<path class="st4" d="M204,194.5l-16.1,0c-0.1,0-0.3-0.1-0.3-0.3l0-1.1c0-0.1,0.1-0.3,0.3-0.3l16.1,0c0.1,0,0.3,0.1,0.3,0.3l0,1.1
		C204.3,194.3,204.1,194.5,204,194.5z"/>
	<path class="st4" d="M201.3,197.4l-13.4,0c-0.1,0-0.3-0.1-0.3-0.3l0-1.1c0-0.1,0.1-0.3,0.3-0.3l13.4,0c0.1,0,0.3,0.1,0.3,0.3l0,1.1
		C201.6,197.3,201.5,197.5,201.3,197.4z"/>
	<path class="st4" d="M199.7,202.5l-11.9,0c-0.1,0-0.3-0.1-0.3-0.3l0-1.1c0-0.1,0.1-0.3,0.3-0.3l11.9,0c0.1,0,0.3,0.1,0.3,0.3l0,1.1
		C200,202.4,200,202.5,199.7,202.5z"/>
	<path class="st4" d="M203.9,205.3l-16.1,0c-0.1,0-0.3-0.1-0.3-0.3l0-1.1c0-0.1,0.1-0.3,0.3-0.3l16.1,0c0.1,0,0.3,0.1,0.3,0.3l0,1.1
		C204.3,205.3,204.1,205.4,203.9,205.3z"/>
	<path class="st4" d="M204,208.4l-16.1,0c-0.1,0-0.3-0.1-0.3-0.3l0-1.1c0-0.1,0.1-0.3,0.3-0.3l16.1,0c0.1,0,0.3,0.1,0.3,0.3l0,1.1
		C204.2,208.3,204.1,208.4,204,208.4z"/>
	<path class="st4" d="M203.9,211.6l-16.1,0c-0.1,0-0.3-0.1-0.3-0.3l0-1.1c0-0.1,0.1-0.3,0.3-0.3l16.1,0c0.1,0,0.3,0.1,0.3,0.3l0,1.1
		C204.2,211.4,204.1,211.5,203.9,211.6z"/>
	<path class="st4" d="M203.9,214.7l-16.1,0c-0.1,0-0.3-0.1-0.3-0.3l0-1.1c0-0.1,0.1-0.3,0.3-0.3l16.1,0c0.1,0,0.3,0.1,0.3,0.3l0,1.1
		C204.2,214.5,204,214.7,203.9,214.7z"/>
	<path class="st4" d="M203.9,217.9l-16.1,0c-0.1,0-0.3-0.1-0.3-0.3l0-1.1c0-0.1,0.1-0.3,0.3-0.3l16.1,0c0.1,0,0.3,0.1,0.3,0.3l0,1.1
		C204.2,217.7,204,217.8,203.9,217.9z"/>
	<path class="st4" d="M222.6,185.2l-16.1,0c-0.1,0-0.3-0.1-0.3-0.3l0-1.1c0-0.1,0.1-0.3,0.3-0.3l16.1,0c0.1,0,0.3,0.1,0.3,0.3l0,1.1
		C222.9,185,222.8,185.2,222.6,185.2z"/>
	<path class="st4" d="M222.6,188.1l-16.1,0c-0.1,0-0.3-0.1-0.3-0.3l0-1.1c0-0.1,0.1-0.3,0.3-0.3l16.1,0c0.1,0,0.3,0.1,0.3,0.3l0,1.1
		C222.9,188,222.7,188.1,222.6,188.1z"/>
	<path class="st4" d="M222.6,191.3l-16.1,0c-0.1,0-0.3-0.1-0.3-0.3l0-1.1c0-0.1,0.1-0.3,0.3-0.3l16.1,0c0.1,0,0.3,0.1,0.3,0.3l0,1.1
		C222.9,191.1,222.7,191.3,222.6,191.3z"/>
	<path class="st4" d="M222.6,194.5l-16.1,0c-0.1,0-0.3-0.1-0.3-0.3l0-1.1c0-0.1,0.1-0.3,0.3-0.3l16.1,0c0.1,0,0.3,0.1,0.3,0.3l0,1.1
		C222.9,194.3,222.7,194.4,222.6,194.5z"/>
	<path class="st4" d="M222.6,197.6l-16.1,0c-0.1,0-0.3-0.1-0.3-0.3l0-1.1c0-0.1,0.1-0.3,0.3-0.3l16.1,0c0.1,0,0.3,0.1,0.3,0.3l0,1.1
		C222.9,197.4,222.7,197.5,222.6,197.6z"/>
	<path class="st4" d="M222.5,200.7l-16.1,0c-0.1,0-0.3-0.1-0.3-0.3l0-1.1c0-0.1,0.1-0.3,0.3-0.3l16.1,0c0.1,0,0.3,0.1,0.3,0.3l0,1.1
		C222.9,200.5,222.7,200.7,222.5,200.7z"/>
	<path class="st4" d="M222.5,203.7l-16.1,0c-0.1,0-0.3-0.1-0.3-0.3l0-1.1c0-0.1,0.1-0.3,0.3-0.3l16.1,0c0.1,0,0.3,0.1,0.3,0.3l0,1.1
		C222.9,203.5,222.7,203.7,222.5,203.7z"/>
	<path class="st4" d="M222.5,206.8l-16.1,0c-0.1,0-0.3-0.1-0.3-0.3l0-1.1c0-0.1,0.1-0.3,0.3-0.3l16.1,0c0.1,0,0.3,0.1,0.3,0.3l0,1.1
		C222.8,206.8,222.8,206.8,222.5,206.8z"/>
	<path class="st4" d="M222.5,210l-16.1,0c-0.1,0-0.3-0.1-0.3-0.3l0-1.1c0-0.1,0.1-0.3,0.3-0.3l16.1,0c0.1,0,0.3,0.1,0.3,0.3l0,1.1
		C222.8,209.9,222.7,209.9,222.5,210z"/>
	<path class="st4" d="M213.1,213.1l-6.7,0c-0.1,0-0.3-0.1-0.3-0.3l0-1.1c0-0.1,0.1-0.3,0.3-0.3l6.7,0c0.1,0,0.3,0.1,0.3,0.3l0,1.1
		C213.4,212.9,213.4,213.1,213.1,213.1z"/>
	<path class="st6" d="M171.9,221.9l-36.5-0.3c-2.2-0.1-4-1.9-3.9-4.1l0.6-52.2c0.1-2.2,1.9-4,4.1-3.9l36.5,0.3
		c2.2,0.1,4,1.9,3.9,4.1L176,218C175.9,220.1,174.1,221.9,171.9,221.9z"/>
	<path class="st7" d="M145.1,169.2l-7.4-0.1c-0.2,0-0.3-0.1-0.3-0.3l0-1.1c0-0.2,0.1-0.3,0.3-0.3l7.4,0.1c0.2,0,0.3,0.1,0.3,0.3
		l0,1.1C145.4,169,145.2,169.2,145.1,169.2z"/>
	<path class="st7" d="M168.3,173.1l-26.6-0.3c-0.2,0-0.3-0.1-0.3-0.3l0-1.1c0-0.2,0.1-0.3,0.3-0.3l26.6,0.3c0.2,0,0.3,0.1,0.3,0.3
		l0,1.1C168.6,172.9,168.4,173,168.3,173.1z"/>
	<path class="st7" d="M168.3,175.9l-30.7-0.3c-0.2,0-0.3-0.1-0.3-0.3l0-1.1c0-0.2,0.1-0.3,0.3-0.3l30.7,0.3c0.2,0,0.3,0.1,0.3,0.3
		l0,1.1C168.6,175.8,168.5,175.9,168.3,175.9z"/>
	<path class="st7" d="M144.8,179.9l-7.3-0.1c-0.2,0-0.3-0.1-0.3-0.3l0-1.1c0-0.2,0.1-0.3,0.3-0.3l7.3,0.1c0.2,0,0.3,0.1,0.3,0.3
		l0,1.1C145.1,179.7,145,179.9,144.8,179.9z"/>
	<path class="st7" d="M168.1,183.3l-26.6-0.3c-0.2,0-0.3-0.1-0.3-0.3l0-1.1c0-0.2,0.1-0.3,0.3-0.3l26.6,0.3c0.2,0,0.3,0.1,0.3,0.3
		l0,1.1C168.4,183.2,168.4,183.4,168.1,183.3z"/>
	<path class="st7" d="M144.7,187.8l-7.3-0.1c-0.2,0-0.3-0.1-0.3-0.3l0-1.1c0-0.2,0.1-0.3,0.3-0.3l7.3,0.1c0.2,0,0.3,0.1,0.3,0.3
		l0,1.1C145,187.6,144.8,187.7,144.7,187.8z"/>
	<path class="st7" d="M168.2,191.1l-26.7-0.3c-0.2,0-0.3-0.1-0.3-0.3l0-1.1c0-0.2,0.1-0.3,0.3-0.3l26.7,0.3c0.2,0,0.3,0.1,0.3,0.3
		l0,1.1C168.5,191,168.4,191.1,168.2,191.1z"/>
	<path class="st7" d="M140.8,193.6l-3.4-0.1c-0.2,0-0.3-0.1-0.3-0.3l0-1.1c0-0.2,0.1-0.3,0.3-0.3l3.4,0.1c0.2,0,0.3,0.1,0.3,0.3
		l0,1.1C141.1,193.4,140.9,193.6,140.8,193.6z"/>
	<line class="st8" x1="295.9" y1="176.5" x2="296.2" y2="209.4"/>
	<polygon class="st0" points="296,173.6 294.9,176.6 296.9,176.6 	"/>
	
		<rect x="315.6" y="160.9" transform="matrix(1 -4.303741e-03 4.303741e-03 1 -0.7961 1.3742)" class="st9" width="6.6" height="49.5"/>
	<line class="st10" x1="322.3" y1="204.5" x2="321.2" y2="204.6"/>
	<line class="st10" x1="322.3" y1="205.1" x2="321.2" y2="205.1"/>
	<line class="st10" x1="322.3" y1="205.5" x2="321.2" y2="205.5"/>
	<line class="st10" x1="322.3" y1="206" x2="321.3" y2="206"/>
	<line class="st11" x1="322.3" y1="206.6" x2="320.7" y2="206.7"/>
	<line class="st10" x1="322.3" y1="207.2" x2="321.2" y2="207.2"/>
	<line class="st10" x1="322.3" y1="207.7" x2="321.2" y2="207.7"/>
	<line class="st10" x1="322.3" y1="208.1" x2="321.3" y2="208.2"/>
	<line class="st10" x1="322.2" y1="208.7" x2="321.2" y2="208.7"/>
	<line class="st12" x1="322.3" y1="209.2" x2="320.4" y2="209.2"/>
</g>
<g id="Layer_3">
	<line class="st12" x1="322" y1="161.8" x2="320.1" y2="161.8"/>
	<line class="st10" x1="322.1" y1="162.3" x2="321.1" y2="162.3"/>
	<line class="st10" x1="322" y1="162.8" x2="321" y2="162.9"/>
	<line class="st10" x1="322.1" y1="163.4" x2="321" y2="163.3"/>
	<line class="st10" x1="322.1" y1="163.8" x2="321.1" y2="163.8"/>
	<line class="st11" x1="322.1" y1="164.4" x2="320.6" y2="164.4"/>
	<line class="st10" x1="322" y1="165" x2="321" y2="165"/>
	<line class="st10" x1="322.1" y1="165.5" x2="321" y2="165.5"/>
	<line class="st10" x1="322.1" y1="165.9" x2="321.1" y2="165.9"/>
	<line class="st10" x1="322.1" y1="166.4" x2="321.1" y2="166.5"/>
	<line class="st12" x1="322.1" y1="167.1" x2="320.2" y2="167.1"/>
	<line class="st10" x1="322.2" y1="167.6" x2="321.1" y2="167.6"/>
	<line class="st10" x1="322.1" y1="168.1" x2="321.1" y2="168.1"/>
	<line class="st10" x1="322.1" y1="168.5" x2="321.1" y2="168.6"/>
	<line class="st10" x1="322.2" y1="169.1" x2="321.1" y2="169.1"/>
	<line class="st11" x1="322.1" y1="169.7" x2="320.6" y2="169.7"/>
	<line class="st10" x1="322.1" y1="170.2" x2="321.1" y2="170.2"/>
	<line class="st10" x1="322.1" y1="170.7" x2="321.1" y2="170.8"/>
	<line class="st10" x1="322.2" y1="171.2" x2="321.1" y2="171.2"/>
	<line class="st10" x1="322.1" y1="171.7" x2="321" y2="171.7"/>
	<line class="st12" x1="322.1" y1="172.3" x2="320.2" y2="172.3"/>
	<line class="st10" x1="322.1" y1="172.9" x2="321.1" y2="172.9"/>
	<line class="st10" x1="322.2" y1="173.4" x2="321.1" y2="173.3"/>
	<line class="st10" x1="322.2" y1="173.8" x2="321.2" y2="173.9"/>
	<line class="st10" x1="322.1" y1="174.4" x2="321.1" y2="174.4"/>
	<line class="st11" x1="322.2" y1="174.9" x2="320.6" y2="175"/>
	<line class="st10" x1="322.2" y1="175.5" x2="321.1" y2="175.5"/>
	<line class="st10" x1="322.2" y1="176" x2="321.1" y2="176.1"/>
	<line class="st10" x1="322.1" y1="176.5" x2="321.1" y2="176.5"/>
	<line class="st10" x1="322.1" y1="177" x2="321.1" y2="177"/>
	<line class="st12" x1="322.1" y1="177.6" x2="320.2" y2="177.6"/>
	<line class="st10" x1="322.2" y1="178.1" x2="321.1" y2="178.1"/>
	<line class="st10" x1="322.2" y1="178.6" x2="321.2" y2="178.6"/>
	<line class="st10" x1="322.1" y1="179.1" x2="321.1" y2="179.1"/>
	<line class="st10" x1="322.2" y1="179.6" x2="321.1" y2="179.6"/>
	<line class="st11" x1="322.1" y1="180.2" x2="320.6" y2="180.2"/>
	<line class="st10" x1="322.2" y1="180.7" x2="321.1" y2="180.8"/>
	<line class="st10" x1="322.1" y1="181.3" x2="321.1" y2="181.3"/>
	<line class="st10" x1="322.2" y1="181.7" x2="321.1" y2="181.7"/>
	<line class="st10" x1="322.2" y1="182.2" x2="321.2" y2="182.2"/>
	<line class="st12" x1="322.2" y1="182.9" x2="320.3" y2="182.9"/>
	<line class="st10" x1="322.1" y1="183.4" x2="321.1" y2="183.4"/>
	<line class="st10" x1="322.2" y1="183.9" x2="321.1" y2="183.9"/>
	<line class="st10" x1="322.2" y1="184.3" x2="321.2" y2="184.4"/>
	<line class="st10" x1="322.2" y1="184.9" x2="321.1" y2="184.9"/>
	<line class="st11" x1="322.2" y1="185.4" x2="320.6" y2="185.5"/>
	<line class="st10" x1="322.2" y1="186" x2="321.1" y2="186"/>
	<line class="st10" x1="322.2" y1="186.5" x2="321.2" y2="186.5"/>
	<line class="st10" x1="322.1" y1="187.1" x2="321.1" y2="187"/>
	<line class="st10" x1="322.1" y1="187.5" x2="321.1" y2="187.5"/>
	<line class="st12" x1="322.2" y1="188" x2="320.2" y2="188.1"/>
	<line class="st10" x1="322.2" y1="188.6" x2="321.2" y2="188.7"/>
	<line class="st10" x1="322.2" y1="189.2" x2="321.2" y2="189.1"/>
	<line class="st10" x1="322.1" y1="189.7" x2="321.1" y2="189.6"/>
	<line class="st10" x1="322.2" y1="190.1" x2="321.2" y2="190.2"/>
	<line class="st11" x1="322.2" y1="190.8" x2="320.7" y2="190.8"/>
	<line class="st10" x1="322.2" y1="191.3" x2="321.1" y2="191.3"/>
	<line class="st10" x1="322.1" y1="191.8" x2="321.1" y2="191.8"/>
	<line class="st10" x1="322.2" y1="192.2" x2="321.2" y2="192.3"/>
	<line class="st10" x1="322.2" y1="192.8" x2="321.2" y2="192.8"/>
	<line class="st12" x1="322.2" y1="193.4" x2="320.3" y2="193.4"/>
	<line class="st10" x1="322.2" y1="193.9" x2="321.2" y2="194"/>
	<line class="st10" x1="322.2" y1="194.5" x2="321.2" y2="194.5"/>
	<line class="st10" x1="322.2" y1="194.9" x2="321.2" y2="194.9"/>
	<line class="st10" x1="322.2" y1="195.4" x2="321.2" y2="195.4"/>
	<line class="st11" x1="322.2" y1="196" x2="320.7" y2="196.1"/>
	<line class="st10" x1="322.2" y1="196.6" x2="321.2" y2="196.6"/>
	<line class="st10" x1="322.2" y1="197.1" x2="321.2" y2="197.1"/>
	<line class="st10" x1="322.2" y1="197.5" x2="321.2" y2="197.6"/>
	<line class="st10" x1="322.2" y1="198.1" x2="321.2" y2="198.1"/>
	<line class="st12" x1="322.2" y1="198.6" x2="320.3" y2="198.6"/>
	<line class="st10" x1="322.2" y1="199.2" x2="321.2" y2="199.3"/>
	<line class="st10" x1="322.3" y1="199.8" x2="321.2" y2="199.7"/>
	<line class="st10" x1="322.3" y1="200.2" x2="321.3" y2="200.2"/>
	<line class="st10" x1="322.2" y1="200.7" x2="321.2" y2="200.8"/>
	<line class="st11" x1="322.3" y1="201.3" x2="320.7" y2="201.4"/>
	<line class="st10" x1="322.3" y1="201.9" x2="321.2" y2="201.9"/>
	<line class="st10" x1="322.2" y1="202.4" x2="321.2" y2="202.4"/>
	<line class="st10" x1="322.2" y1="202.8" x2="321.2" y2="202.9"/>
	<line class="st10" x1="322.3" y1="203.4" x2="321.2" y2="203.4"/>
	<line class="st12" x1="322.2" y1="204" x2="320.3" y2="204"/>
	<path class="st13" d="M303.3,209.7l0.1-14.7c0-0.5,0.5-1,1-1l5,0c0.5,0,1,0.5,1,1l-0.1,14.7c0,0.5-0.5,1-1,1l-5,0
		C303.8,210.6,303.4,210.2,303.3,209.7z"/>
	
		<rect x="300.9" y="201.2" transform="matrix(5.446603e-03 -1 1 5.446603e-03 100.4507 510.5143)" class="st14" width="11.9" height="7.1"/>
</g>
<g id="Layer_2_1_">
	<path class="st3" d="M121.5,221.2L85,221.1c-2.2,0-4-1.9-4-4l0.1-52.2c0-2.2,1.9-4,4-4l36.5,0.1c2.2,0,4,1.9,4,4l-0.1,52.2
		C125.5,219.4,123.7,221.2,121.5,221.2z"/>
	<path class="st4" d="M120.6,168.6l-30.7-0.3c-0.2,0-0.3-0.1-0.3-0.3l0-1.1c0-0.2,0.1-0.3,0.3-0.3l30.8,0.4c0.2,0,0.3,0.1,0.3,0.3
		l0,1.1C121,168.4,120.8,168.6,120.6,168.6z"/>
	<path class="st4" d="M120.6,171.8L86,171.4c-0.2,0-0.3-0.1-0.3-0.3l-0.1-1.2c0-0.2,0.1-0.3,0.3-0.3l34.6,0.4c0.2,0,0.3,0.1,0.3,0.3
		l0,1.1C121,171.7,120.7,171.7,120.6,171.8z"/>
	<path class="st4" d="M120.5,175l-34.6-0.4c-0.2,0-0.3-0.1-0.3-0.3l0-1.1c0-0.2,0.1-0.3,0.3-0.3l34.5,0.4c0.2,0,0.3,0.1,0.3,0.3
		l0,1.1C120.9,174.9,120.7,175.1,120.5,175z"/>
	<path class="st4" d="M120.6,178.3l-34.6-0.4c-0.2,0-0.3-0.1-0.3-0.3l0-1.1c0-0.2,0.1-0.3,0.3-0.3l34.6,0.4c0.2,0,0.3,0.1,0.3,0.3
		l0,1.1C120.9,178.1,120.7,178.2,120.6,178.3z"/>
	<path class="st4" d="M120.5,181.4L85.9,181c-0.2,0-0.3-0.1-0.3-0.3l0-1.1c0-0.2,0.1-0.3,0.3-0.3l34.6,0.4c0.2,0,0.3,0.1,0.3,0.3
		l0,1.1C120.8,181.2,120.7,181.4,120.5,181.4z"/>
	<path class="st4" d="M120.5,184.7l-34.6-0.4c-0.2,0-0.3-0.1-0.3-0.3l0-1.1c0-0.2,0.1-0.3,0.3-0.3l34.6,0.4c0.2,0,0.3,0.1,0.3,0.3
		l0,1.1C120.8,184.5,120.6,184.6,120.5,184.7z"/>
	<path class="st4" d="M101.1,187.7l-15.3-0.2c-0.2,0-0.3-0.1-0.3-0.3l0-1.1c0-0.2,0.1-0.3,0.3-0.3l15.3,0.2c0.2,0,0.3,0.1,0.3,0.3
		l0,1.1C101.4,187.5,101.2,187.7,101.1,187.7z"/>
	<path class="st4" d="M100.7,199.5l-11.2-0.2c-0.2,0-0.3-0.1-0.3-0.3l0-1.1c0-0.2,0.1-0.3,0.3-0.3l11.2,0.2c0.2,0,0.3,0.1,0.3,0.3
		l0,1.1C100.9,199.4,100.8,199.5,100.7,199.5z"/>
	<path class="st4" d="M100.6,202.7l-15.1-0.2c-0.2,0-0.3-0.1-0.3-0.3l0-1.1c0-0.2,0.1-0.3,0.3-0.3l15.1,0.2c0.2,0,0.3,0.1,0.3,0.3
		l0,1.1C100.9,202.6,100.8,202.7,100.6,202.7z"/>
	<line class="st15" x1="104.2" y1="187.7" x2="104" y2="204.2"/>
	<line class="st15" x1="120.5" y1="204.4" x2="104" y2="204.2"/>
	<circle class="st16" cx="107.9" cy="198.4" r="0.4"/>
	<circle class="st16" cx="114.2" cy="193.3" r="0.4"/>
	<circle class="st16" cx="114.1" cy="197.6" r="0.4"/>
	<circle class="st16" cx="115.2" cy="190.7" r="0.4"/>
	<circle class="st16" cx="110.3" cy="195.4" r="0.4"/>
	<circle class="st16" cx="107.1" cy="202.4" r="0.4"/>
	<path class="st4" d="M101,190.9l-15.3-0.2c-0.2,0-0.3-0.1-0.3-0.3l0-1.1c0-0.2,0.1-0.3,0.3-0.3l15.3,0.2c0.2,0,0.3,0.1,0.3,0.3
		l0,1.1C101.3,190.7,101.2,190.9,101,190.9z"/>
	<path class="st4" d="M101,194l-15.3-0.2c-0.2,0-0.3-0.1-0.3-0.3l0-1.1c0-0.2,0.1-0.3,0.3-0.3l15.3,0.2c0.2,0,0.3,0.1,0.3,0.3l0,1.1
		C101.2,193.8,101.1,194,101,194z"/>
	<path class="st4" d="M100.6,205.9l-15.1-0.2c-0.2,0-0.3-0.1-0.3-0.3l0-1.1c0-0.2,0.1-0.3,0.3-0.3l15.1,0.2c0.2,0,0.3,0.1,0.3,0.3
		l0,1.1C100.9,205.8,100.7,206,100.6,205.9z"/>
	<path class="st4" d="M120.2,209.4L85.5,209c-0.2,0-0.3-0.1-0.3-0.3l0-1.1c0-0.2,0.1-0.3,0.3-0.3l34.6,0.4c0.2,0,0.3,0.1,0.3,0.3
		l0,1.1C120.4,209.3,120.3,209.4,120.2,209.4z"/>
	<path class="st4" d="M120.1,212.6l-34.6-0.4c-0.2,0-0.3-0.1-0.3-0.3l0-1.1c0-0.2,0.1-0.3,0.3-0.3l34.6,0.4c0.2,0,0.3,0.1,0.3,0.3
		l0,1.1C120.4,212.4,120.3,212.6,120.1,212.6z"/>
	<path class="st4" d="M120.1,215.9l-34.6-0.4c-0.2,0-0.3-0.1-0.3-0.3l0-1.1c0-0.2,0.1-0.3,0.3-0.3l34.6,0.4c0.2,0,0.3,0.1,0.3,0.3
		l0,1.1C120.3,215.7,120.2,215.8,120.1,215.9z"/>
</g>
</svg>
