<?xml version="1.0" encoding="utf-8"?>
<!-- Generator: Adobe Illustrator 22.0.1, SVG Export Plug-In . SVG Version: 6.00 Build 0)  -->
<svg version="1.1" id="Layer_1" xmlns="http://www.w3.org/2000/svg" xmlns:xlink="http://www.w3.org/1999/xlink" x="0px" y="0px"
	 viewBox="0 0 278.4 42.1" style="enable-background:new 0 0 278.4 42.1;" xml:space="preserve">
<style type="text/css">
	.st0{fill:#7CBFFF;}
	.st1{fill:#32FF95;}
	.st2{fill:none;}
	.st3{fill:#FFA4B6;}
</style>
<g>
	<path class="st0" d="M26.9,31.5v-7.1h-7.6V19h13.3v15.3c0,0-4.3,4.2-12.4,4.2c-9.8,0-17.7-7.4-17.7-17.4c0-9.9,7.6-17.3,17.4-17.3
		c8.3,0,12.5,5,12.5,5l-3.9,3.8c0,0-2.8-3.5-8.5-3.5c-6.8,0-11.6,5.5-11.6,12s5,12,11.8,12C25,33.1,26.9,31.5,26.9,31.5z"/>
	<path class="st0" d="M53.6,15.3l-2,5.2c0,0-1.1-0.5-2.7-0.5c-3.5,0-5.1,3.1-5.1,3.1V38H38V15.2h5.5v3.3c0,0,2-3.9,6.2-3.9
		C51.7,14.6,53.6,15.3,53.6,15.3z"/>
	<path class="st0" d="M75.9,23.1v14.8h-5.3V35c0,0-2.4,3.5-7.5,3.5c-4.3,0-8.2-2.8-8.2-7.6c0-4.4,4-7.5,8.9-7.5
		c4.2,0,6.3,1.6,6.3,1.6v-1.3c0-3-2.9-3.9-4.9-3.9c-3.3,0-6.8,1.7-6.8,1.7l-1.9-4.8c0,0,4.2-2.1,9-2.1
		C72.1,14.6,75.9,17.9,75.9,23.1z M70.2,31.1v-2.4c0,0-2.1-1.2-5.2-1.2c-1.8,0-4.2,0.8-4.2,3.2s2.4,2.9,4.1,2.9
		C68.4,33.8,70.2,31.1,70.2,31.1z"/>
	<path class="st0" d="M103.4,37.9h-5.3v-3c0,0-2,3.6-6.9,3.6c-5.9,0-11.1-4.9-11.1-12s5.2-12,11.1-12c4.3,0,6.4,3,6.4,3V1.6h5.8
		V37.9z M97.7,23.2c0,0-1.6-3.2-5.4-3.2c-3.9,0-6.2,2.8-6.2,6.6s2.4,6.6,6.2,6.6s5.4-3.2,5.4-3.2V23.2z"/>
	<path class="st0" d="M131.2,26.5c0,0.4,0,1.3,0,2.2h-17c0.4,2,2.8,4.6,6.4,4.6c4,0,6.2-2.3,6.2-2.3l2.9,4.3c0,0-3.6,3.3-9.1,3.3
		c-6.9,0-12.2-5.3-12.2-12s4.8-12,11.4-12C126,14.6,131.2,19.5,131.2,26.5z M125.5,24.4c-0.1-2-1.9-4.6-5.7-4.6
		c-3.7,0-5.4,2.6-5.6,4.6H125.5z"/>
	<path class="st1" d="M136.1,4.3H147c5.5,0,10.7,2.5,10.7,9.6c0,4.1-3,6-3.5,6.2c0.5,0.1,5.2,1.8,5.2,7.9c0,5.9-4.9,9.9-11.2,9.9
		h-12.1L136.1,4.3L136.1,4.3z M146.8,18.1c3.2,0,5-1.2,5-4.1s-2.2-4.1-5-4.1h-4.9v8.3L146.8,18.1L146.8,18.1z M153.6,28
		c0-3.2-2.4-4.5-5.6-4.5h-6.1v8.9h6.1C151.2,32.5,153.6,31.2,153.6,28z"/>
	<path class="st1" d="M186.5,26.6c0,6.7-5.4,12-12.1,12s-12.1-5.3-12.1-12s5.4-12,12.1-12S186.5,19.8,186.5,26.6z M180.7,26.6
		c0-3.6-2.4-6.6-6.3-6.6s-6.3,3-6.3,6.6s2.4,6.6,6.3,6.6S180.7,30.1,180.7,26.6z"/>
	<path class="st1" d="M213.5,26.6c0,6.7-5.4,12-12.1,12s-12.1-5.3-12.1-12s5.4-12,12.1-12S213.5,19.8,213.5,26.6z M207.6,26.6
		c0-3.6-2.4-6.6-6.3-6.6s-6.3,3-6.3,6.6s2.4,6.6,6.3,6.6S207.6,30.1,207.6,26.6z"/>
	<path class="st1" d="M224.2,24.2l8.2-9h7.4l-10,10.8l10.7,12h-7.6l-8.7-9.9V38h-5.8V1.6h5.8L224.2,24.2L224.2,24.2z"/>
</g>
<g>
	<rect x="189.1" y="-4" class="st2" width="13.7" height="0.7"/>
</g>
<g>
	<g>
		<rect x="252.8" y="27.5" class="st2" width="40.5" height="0.3"/>
	</g>
</g>
<g>
	<path class="st3" d="M247.8,11.3l1.3,1.4c0,0-1.2,1.5-3.3,1.5c-2.4,0-4.3-1.9-4.3-4.2c0-2.4,1.9-4.2,4.3-4.2c2.2,0,3.3,1.5,3.3,1.5
		l-1.4,1.3c0,0-0.7-0.9-1.9-0.9c-1.4,0-2.3,1.1-2.3,2.3c0,1.3,0.9,2.3,2.3,2.3S247.8,11.3,247.8,11.3z"/>
	<path class="st3" d="M258,8.7V14h-2V9.2c0-1.2-0.7-1.6-1.6-1.6c-1.1,0-1.6,1.1-1.6,1.1V14h-2V1.1h2v5.8c0,0,0.7-1.2,2.3-1.2
		C256.6,5.7,258,6.8,258,8.7z"/>
	<path class="st3" d="M267.1,8.7V14h-1.9v-1c0,0-0.8,1.2-2.7,1.2c-1.5,0-2.9-1-2.9-2.7c0-1.5,1.4-2.7,3.2-2.7c1.5,0,2.2,0.6,2.2,0.6
		V8.9c0-1.1-1-1.4-1.7-1.4c-1.2,0-2.4,0.6-2.4,0.6l-0.7-1.7c0,0,1.5-0.7,3.2-0.7C265.8,5.7,267.1,6.9,267.1,8.7z M265.1,11.5v-0.8
		c0,0-0.7-0.4-1.8-0.4c-0.6,0-1.5,0.3-1.5,1.1c0,0.9,0.8,1,1.5,1C264.5,12.5,265.1,11.5,265.1,11.5z"/>
	<path class="st3" d="M268.5,5.9h1.6V3.5h2v2.4h2.4v1.8h-2.4V11c0,1,0.5,1.3,1.1,1.3c0.5,0,0.8-0.3,0.8-0.3l0.7,1.7
		c0,0-0.8,0.5-1.9,0.5c-1.6,0-2.8-1.1-2.8-2.9V7.7h-1.6V5.9z"/>
</g>
</svg>
