<?xml version="1.0" encoding="utf-8"?>
<!-- Generator: Adobe Illustrator 22.0.1, SVG Export Plug-In . SVG Version: 6.00 Build 0)  -->
<svg version="1.1" id="Layer_1" xmlns="http://www.w3.org/2000/svg" xmlns:xlink="http://www.w3.org/1999/xlink" x="0px" y="0px"
	 viewBox="0 0 120.3 21.3" style="enable-background:new 0 0 120.3 21.3;" xml:space="preserve">
<style type="text/css">
	.st0{fill:#03E8B4;}
	.st1{fill:#527AFF;}
</style>
<g>
	<path class="st0" d="M77.4,10.3c0.7,0.2,1.3,0.5,1.8,1c1.3,1.4,1.4,3.8,0.3,5.4c-0.9,1.2-2.1,1.8-3.6,1.9c-2.3,0.1-4.6,0-6.9,0
		c-0.3,0-0.2-0.2-0.2-0.4c0-4.5,0-9,0-13.6c0-0.4,0-0.9,0-1.3c0-0.2,0-0.3,0.3-0.3c2.1,0,4.2,0,6.3,0c1.5,0,2.8,0.6,3.6,2
		c0.8,1.3,0.7,3.2-0.2,4.3c-0.2,0.2-0.3,0.4-0.6,0.5C77.9,10,77.7,10.2,77.4,10.3z M71.9,13.8c0,0.6,0,1.2,0,1.7
		c0,0.2,0.1,0.3,0.3,0.3c1,0,2,0,3,0c0.7,0,1.2-0.3,1.6-0.9c0.8-1.2,0-3.1-1.8-3.1c-1,0-1.9,0-2.9,0c-0.2,0-0.3,0.1-0.3,0.3
		C71.9,12.7,71.9,13.3,71.9,13.8z M73.6,5.9C73.6,5.9,73.6,5.9,73.6,5.9c-0.5,0-1,0-1.5,0c-0.1,0-0.3,0-0.3,0.2c0,1,0,2,0,3
		c0,0.1,0,0.2,0.2,0.2c0.9,0,1.9,0,2.8,0c0.7,0,1.1-0.4,1.3-1c0.1-0.4,0.1-0.7,0-1.1c-0.2-0.8-0.6-1.2-1.5-1.2
		C74.4,5.9,74,5.9,73.6,5.9z"/>
	<path class="st1" d="M13,10.5c1.2,0,2.4,0,3.5,0c0.3,0,0.3,0,0.3,0.3c0,1.5-0.3,3-1,4.4c-0.7,1.5-1.9,2.5-3.4,3
		c-2.1,0.7-4.2,0.8-6.3-0.1c-2.4-1-3.9-2.8-4.5-5.3C1.1,10.4,1.5,8,3.1,6c1.3-1.7,3.1-2.7,5.2-3c1.6-0.2,3.1,0,4.6,0.7
		c0.8,0.4,1.4,0.9,2,1.5c0.1,0.1,0.2,0.2,0,0.4c-0.6,0.5-1.3,1.1-1.9,1.6c-0.2,0.1-0.2,0.1-0.4,0c-0.6-0.6-1.3-1-2.1-1.2
		C9.3,5.6,8.1,5.8,7,6.5c-3.3,2-3.1,6.9,0,8.9c1,0.7,2.1,0.8,3.3,0.6c0.8-0.1,1.5-0.4,2.1-0.9c0.5-0.5,0.8-1.1,1-1.7
		c0.1-0.3-0.1-0.2-0.3-0.2c-1.2,0-2.4,0-3.6,0c-0.5,0-0.5,0-0.5-0.5c0-0.6,0-1.2,0-1.8c0-0.2,0.1-0.3,0.3-0.3
		C10.6,10.5,11.8,10.5,13,10.5z"/>
	<path class="st1" d="M49.7,9.3c0.1-0.1,0.1-0.2,0.1-0.3c0-2,0-4,0-6.1c0-0.3,0.1-0.4,0.4-0.4c0.8,0,1.5,0,2.3,0
		c0.2,0,0.3,0.1,0.3,0.3c0,5.2,0,10.3,0,15.5c0,0.3-0.1,0.3-0.3,0.3c-0.8,0-1.5,0-2.3,0c-0.3,0-0.3-0.1-0.3-0.3c0-0.2,0-0.4,0-0.7
		c0-0.1,0-0.1,0-0.2c-0.1,0-0.1,0-0.2,0.1c-2.2,2.2-6.3,1.5-7.7-1.6c-1-2.1-0.9-4.2,0.5-6.1c0.8-1.1,1.9-1.7,3.3-1.9
		c1.2-0.2,2.3,0,3.3,0.7C49.2,8.8,49.4,9,49.7,9.3z M49.6,13.4c0-1.7-1.5-2.7-2.6-2.7c-1.6,0-2.8,1.3-2.8,2.7c0,1.6,1.2,2.8,2.7,2.8
		C48.4,16.1,49.6,14.8,49.6,13.4z"/>
	<path class="st1" d="M35.9,17.5c-0.1,0-0.1,0-0.1,0c-1.6,1.5-3.4,1.7-5.4,0.8c-1.8-0.8-2.7-2.2-3-4.1c-0.2-1.4,0-2.7,0.7-3.9
		c1.2-1.9,3.4-2.8,5.6-2.3c0.8,0.2,1.5,0.6,2.2,1.3c0-0.4,0-0.7,0-1c0-0.2,0-0.3,0.3-0.3c0.8,0,1.6,0,2.4,0c0.2,0,0.2,0.1,0.2,0.3
		c0,3.3,0,6.7,0,10c0,0.2-0.1,0.2-0.3,0.2c-0.8,0-1.6,0-2.4,0c-0.2,0-0.3-0.1-0.3-0.3C35.9,18,35.9,17.7,35.9,17.5z M33.1,16
		c1.4,0.1,2.8-1.1,2.8-2.7c0-1.6-1.2-2.7-2.7-2.7c-1.5,0-2.8,1.2-2.7,2.7C30.4,15.1,31.8,16.1,33.1,16z"/>
	<path class="st0" d="M118.9,18.5c-0.1,0.1-0.2,0.1-0.3,0.1c-1,0-2,0-3,0c-0.2,0-0.4-0.1-0.5-0.3c-1.1-1.3-2.2-2.7-3.2-4
		c-0.1-0.1-0.1-0.1-0.2-0.2c-0.1,0.1-0.1,0.2-0.1,0.3c0,1.3,0,2.5,0,3.8c0,0.3-0.1,0.3-0.3,0.3c-0.8,0-1.6,0-2.4,0
		c-0.2,0-0.3,0-0.3-0.3c0-5.2,0-10.4,0-15.6c0-0.2,0.1-0.3,0.3-0.3c0.8,0,1.5,0,2.3,0c0.3,0,0.4,0.1,0.4,0.4c0,2.7,0,5.3,0,8
		c0,0.1,0,0.2,0,0.3c0.1,0,0.2-0.1,0.2-0.2c0.7-0.9,1.5-1.7,2.2-2.6c0.1-0.2,0.3-0.2,0.5-0.2c1,0,2.1,0,3.1,0c0.1,0,0.2,0,0.3,0.1
		c0,0.1-0.1,0.2-0.1,0.2c-1.2,1.4-2.4,2.7-3.6,4.1c-0.2,0.2-0.2,0.3,0,0.5c1.5,1.8,3.1,3.6,4.6,5.4
		C118.8,18.4,118.8,18.5,118.9,18.5z"/>
	<path class="st1" d="M62,14.3c-1.2,0-2.4,0-3.6,0c-0.2,0-0.3,0-0.2,0.3c0.4,0.9,1.1,1.4,2.1,1.5c1.2,0.1,2.2-0.1,3.1-1
		c0.1-0.1,0.2-0.1,0.3,0c0.5,0.5,0.9,0.9,1.4,1.4c0.2,0.2,0.1,0.3,0,0.4c-0.7,0.8-1.6,1.3-2.6,1.6c-1.6,0.4-3.1,0.4-4.6-0.4
		c-1.4-0.7-2.3-1.8-2.7-3.3c-0.4-1.7-0.3-3.2,0.7-4.7c0.8-1.3,2.1-2,3.5-2.2c2-0.4,3.8,0.1,5.3,1.6c0.8,0.9,1.2,1.9,1.3,3.1
		c0,0.4,0,0.9,0,1.3c0,0.2-0.1,0.3-0.3,0.3C64.5,14.3,63.3,14.3,62,14.3z M60.6,12.4c0.6,0,1.3,0,1.9,0c0.7,0,0.7-0.1,0.4-0.7
		c-0.4-0.9-1.2-1.2-2.1-1.3c-1.2-0.1-2.2,0.5-2.6,1.6c-0.1,0.4-0.1,0.4,0.3,0.4C59.2,12.4,59.9,12.4,60.6,12.4z"/>
	<path class="st0" d="M100.6,7.9c2.9,0,5.1,1.8,5.6,4.6c0.5,2.6-1,5.2-3.6,6c-2,0.7-3.9,0.4-5.6-0.8c-1.4-1-2-2.4-2.1-4.1
		c-0.1-2.9,1.8-5.1,4.6-5.6C100,7.9,100.3,7.9,100.6,7.9z M100.6,16c1.5,0,2.7-1.1,2.7-2.6c0-1.7-1.1-2.8-2.6-2.8
		c-1.5,0-2.7,1.1-2.7,2.6C98,14.9,99,16,100.6,16z"/>
	<path class="st0" d="M87.7,7.9c2.6,0,4.7,1.5,5.4,3.9c0.8,2.7-0.3,5.3-2.9,6.5c-3,1.4-6.5,0.2-7.7-2.7c-1.4-3.3,0.4-7,4.2-7.6
		C87,7.9,87.4,7.9,87.7,7.9z M87.7,16c1.5,0,2.7-1.2,2.7-2.7c0-1.6-1.1-2.8-2.7-2.8c-1.5,0-2.7,1.2-2.7,2.7
		C85.1,14.9,86.2,16.1,87.7,16z"/>
	<path class="st1" d="M22,10.1c0.2-0.4,0.4-0.7,0.6-1.1c0.8-1,1.8-1.3,3-1.1c0.3,0,0.6,0.1,0.9,0.2c0.1,0.1,0.2,0.1,0.2,0.3
		c-0.2,0.8-0.4,1.6-0.6,2.4c0,0.2-0.1,0.2-0.3,0.1c-0.6-0.3-1.2-0.4-1.8-0.2c-0.9,0.2-1.4,0.9-1.7,1.8c-0.2,0.7-0.3,1.4-0.3,2.2
		c0,1.2,0,2.4,0,3.7c0,0.2-0.1,0.3-0.3,0.3c-0.8,0-1.6,0-2.3,0c-0.3,0-0.3-0.1-0.3-0.3c0-3.3,0-6.6,0-9.9c0-0.2,0.1-0.3,0.3-0.3
		c0.8,0,1.6,0,2.3,0c0.2,0,0.3,0.1,0.3,0.3c0,0.5,0,0.9,0,1.4C21.9,9.9,21.9,10,22,10.1z"/>
</g>
<g>
</g>
<g>
</g>
<g>
</g>
<g>
</g>
<g>
</g>
</svg>
